<?xml version="1.0" ?>
<svg xmlns="http://www.w3.org/2000/svg" version="1.1" width="512" height="512">
  <defs/>
  <g>
    <rect x="0.0" y="0.0" width="512.0" height="512.0" stroke-width="2.0" fill="rgb(167, 199, 231)" opacity="1.0"/>
    <path d="M 333.65252685546875 165.28562927246094 C 326.1737365722656 222.7286834716797 310.41217041015625 335.2816162109375 185.9392852783203 367.5262756347656 C 134.12295532226562 371.9064636230469 190.58961486816406 233.37094116210938 189.14663696289062 166.67762756347656 C 136.36732482910156 122.20030975341797 173.82627868652344 66.39069366455078 239.4374237060547 38.439369201660156 C 208.51263427734375 98.5753173828125 326.9043884277344 50.588768005371094 333.65252685546875 165.28562927246094" stroke-width="3.0" fill="rgb(246, 158, 100)" opacity="1.0"/>
    <path d="M 403.2952575683594 463.7688903808594 C 377.9311218261719 541.12109375 354.068359375 571.8026123046875 224.28610229492188 586.46875 C 143.20851135253906 593.7863159179688 165.10374450683594 570.6544799804688 201.74220275878906 514.003662109375 C 207.663818359375 463.82928466796875 252.86412048339844 411.57611083984375 231.5035858154297 381.7519836425781 C 280.0592956542969 369.4566650390625 314.7621765136719 340.9691162109375 403.2952575683594 463.7688903808594" stroke-width="3.0" fill="rgb(44, 31, 37)" opacity="1.0"/>
    <path d="M 290.1058349609375 160.6498565673828 C 339.3940734863281 186.0612335205078 318.24688720703125 238.96495056152344 220.66085815429688 250.4812774658203 C 214.69122314453125 256.2559814453125 300.1653747558594 161.59837341308594 147.08596801757812 202.88609313964844 C 93.61139678955078 91.75799560546875 191.82276916503906 48.190818786621094 266.2494201660156 8.555188179016113 C 173.0621337890625 121.45603942871094 302.5172119140625 108.05299377441406 290.1058349609375 160.6498565673828" stroke-width="3.0" fill="rgb(54, 2, 66)" opacity="1.0"/>
    <path d="M 363.5958251953125 136.41354370117188 C 398.1059265136719 159.69537353515625 366.8982238769531 226.62278747558594 263.4402160644531 267.2478942871094 C 276.0173034667969 264.180908203125 336.51324462890625 155.04751586914062 234.3770294189453 142.26712036132812 C 184.07447814941406 71.73721313476562 242.09860229492188 18.83629035949707 284.46929931640625 -3.316777467727661 C 246.30308532714844 87.1705551147461 361.35052490234375 72.03081512451172 363.5958251953125 136.41354370117188" stroke-width="3.0" fill="rgb(240, 154, 39)" opacity="1.0"/>
    <path d="M 368.0020751953125 168.67941284179688 C 391.4178771972656 217.33172607421875 364.4002990722656 295.5704040527344 257.7017822265625 337.39752197265625 C 274.0091857910156 304.3941650390625 319.4164733886719 200.0059814453125 213.3652801513672 170.61361694335938 C 189.4732666015625 105.17149353027344 240.97341918945312 47.241416931152344 268.6007385253906 38.10257339477539 C 260.4972229003906 106.55508422851562 370.25030517578125 85.62117004394531 368.0020751953125 168.67941284179688" stroke-width="3.0" fill="rgb(248, 139, 28)" opacity="1.0"/>
    <path d="M 340.5283203125 502.0257873535156 C 340.5284423828125 569.9652099609375 320.251220703125 594.7762451171875 203.9818878173828 607.7017822265625 C 109.60623931884766 615.6000366210938 137.9777374267578 618.2822265625 167.6471405029297 564.6116943359375 C 192.49722290039062 506.22406005859375 209.16490173339844 445.6739196777344 206.8863525390625 429.6011047363281 C 240.12522888183594 400.4483642578125 278.76641845703125 400.0899963378906 340.5283203125 502.0257873535156" stroke-width="3.0" fill="rgb(198, 37, 89)" opacity="1.0"/>
    <path d="M 467.9657287597656 516.92529296875 C 448.93792724609375 515.757568359375 400.32080078125 519.7152709960938 336.2247619628906 565.7816772460938 C 278.49505615234375 574.9921264648438 318.16094970703125 587.81982421875 320.5393981933594 530.678955078125 C 327.5992126464844 475.25482177734375 341.2296142578125 425.9155578613281 337.8819274902344 399.996826171875 C 365.6453552246094 409.8132629394531 404.6393127441406 426.6583557128906 467.9657287597656 516.92529296875" stroke-width="3.0" fill="rgb(4, 3, 8)" opacity="1.0"/>
    <path d="M 375.0802307128906 518.2910766601562 C 379.5984802246094 560.1288452148438 349.6287841796875 579.34375 248.52989196777344 611.1847534179688 C 161.4016571044922 617.4903564453125 205.2615966796875 632.4563598632812 217.28871154785156 570.0424194335938 C 240.18898010253906 517.8368530273438 258.02557373046875 461.5083923339844 254.46746826171875 437.6627197265625 C 288.0016784667969 414.7027587890625 318.6717529296875 425.8482360839844 375.0802307128906 518.2910766601562" stroke-width="3.0" fill="rgb(3, 1, 4)" opacity="1.0"/>
    <path d="M 270.4124450683594 514.7108764648438 C 272.4789733886719 592.094970703125 267.7925720214844 608.9165649414062 150.36297607421875 626.1896362304688 C 45.638755798339844 633.9423217773438 80.07861328125 624.2782592773438 95.35480499267578 601.7706298828125 C 153.169677734375 542.138916015625 156.2265625 481.91912841796875 177.07081604003906 454.7679443359375 C 200.32305908203125 407.0914001464844 219.94146728515625 429.6988830566406 270.4124450683594 514.7108764648438" stroke-width="3.0" fill="rgb(75, 17, 24)" opacity="1.0"/>
    <path d="M 347.4388122558594 182.2377166748047 C 372.1107177734375 212.97158813476562 343.46697998046875 289.4700622558594 233.5411376953125 317.6387023925781 C 214.593505859375 329.6034240722656 278.2284240722656 221.4658966064453 225.11111450195312 184.1988067626953 C 180.27621459960938 126.05519104003906 214.99295043945312 69.0411148071289 251.03594970703125 48.177024841308594 C 228.88206481933594 118.46202087402344 338.119140625 93.69178771972656 347.4388122558594 182.2377166748047" stroke-width="3.0" fill="rgb(239, 15, 111)" opacity="1.0"/>
    <path d="M 324.05419921875 234.7584228515625 C 322.5310974121094 276.5931091308594 298.40972900390625 359.7795715332031 188.41062927246094 404.8822021484375 C 150.3215789794922 410.13275146484375 217.10394287109375 322.8673095703125 212.20314025878906 264.4688720703125 C 172.79698181152344 218.63571166992188 188.66799926757812 159.1388397216797 232.0624237060547 150.4622802734375 C 223.0802459716797 172.2198486328125 320.0858154296875 136.3041534423828 324.05419921875 234.7584228515625" stroke-width="3.0" fill="rgb(0, 0, 0)" opacity="1.0"/>
    <path d="M 248.3745880126953 135.48753356933594 C 257.5040283203125 136.6645965576172 235.49737548828125 195.60264587402344 146.40863037109375 235.31275939941406 C 150.2615509033203 253.92050170898438 208.44784545898438 179.70692443847656 123.82518005371094 178.13937377929688 C 84.98698425292969 96.2462158203125 157.1820526123047 42.81441879272461 198.28555297851562 -5.644300937652588 C 133.0802764892578 95.8736572265625 247.75421142578125 78.12916564941406 248.3745880126953 135.48753356933594" stroke-width="3.0" fill="rgb(38, 2, 59)" opacity="1.0"/>
    <path d="M 191.49615478515625 213.9285125732422 C 260.96875 307.627197265625 254.0103759765625 384.10601806640625 109.07132720947266 384.6948547363281 C 76.81182861328125 372.6908264160156 129.3292694091797 308.3863525390625 88.70262908935547 296.7102966308594 C 131.74514770507812 242.4790802001953 110.65532684326172 169.26473999023438 174.226806640625 173.43267822265625 C 158.584716796875 171.8479766845703 286.2844543457031 144.1604461669922 191.49615478515625 213.9285125732422" stroke-width="3.0" fill="rgb(251, 151, 128)" opacity="1.0"/>
    <path d="M 300.1888122558594 494.1351623535156 C 313.18463134765625 571.6112670898438 299.4330749511719 599.5006103515625 178.22238159179688 607.2913208007812 C 79.73294830322266 613.9453125 118.20035552978516 617.6743774414062 126.33723449707031 565.4151000976562 C 166.0859832763672 508.0036315917969 185.84228515625 449.06341552734375 194.79971313476562 431.953369140625 C 225.83694458007812 394.02923583984375 253.7455291748047 402.9753112792969 300.1888122558594 494.1351623535156" stroke-width="3.0" fill="rgb(5, 1, 4)" opacity="1.0"/>
    <path d="M 277.04693603515625 324.8470458984375 C 341.9469909667969 405.0826110839844 322.2356872558594 471.83282470703125 219.9459991455078 510.06072998046875 C 131.535400390625 491.7367858886719 231.88851928710938 477.8450927734375 170.63246154785156 385.8888244628906 C 200.32131958007812 342.0963134765625 223.1560516357422 281.3636779785156 224.0281524658203 271.6094970703125 C 243.36216735839844 249.97113037109375 288.3524169921875 236.17601013183594 277.04693603515625 324.8470458984375" stroke-width="3.0" fill="rgb(250, 151, 126)" opacity="1.0"/>
    <path d="M 448.8998718261719 472.9063415527344 C 416.3511047363281 451.4232177734375 358.7766418457031 462.0386962890625 326.21514892578125 523.6218872070312 C 264.79400634765625 528.3851928710938 320.9032287597656 555.4096069335938 315.6470031738281 496.42962646484375 C 321.28656005859375 452.5890808105469 323.7353515625 408.6360778808594 324.14874267578125 386.43939208984375 C 335.80718994140625 394.72015380859375 367.602294921875 413.4722900390625 448.8998718261719 472.9063415527344" stroke-width="3.0" fill="rgb(79, 5, 27)" opacity="1.0"/>
  </g>
</svg>
